Coordinates
version=1
nRows=5
nColumns=40
inDegrees=yes

Units are S.I. units (second, meters, Newtons, ...)
Angles are in degrees.

endheader
time	pelvis_tilt	pelvis_list	pelvis_rotation	pelvis_tx	pelvis_ty	pelvis_tz	hip_flexion_r	hip_adduction_r	hip_rotation_r	knee_angle_r	knee_angle_r_beta	ankle_angle_r	subtalar_angle_r	mtp_angle_r	hip_flexion_l	hip_adduction_l	hip_rotation_l	knee_angle_l	knee_angle_l_beta	ankle_angle_l	subtalar_angle_l	mtp_angle_l	lumbar_extension	lumbar_bending	lumbar_rotation	arm_flex_r	arm_add_r	arm_rot_r	elbow_flex_r	pro_sup_r	wrist_flex_r	wrist_dev_r	arm_flex_l	arm_add_l	arm_rot_l	elbow_flex_l	pro_sup_l	wrist_flex_l	wrist_dev_l
     36.37000000	     -8.22998944	     -5.64245891	     -0.49952563	      1.03989076	      0.92405224	      0.45711252	     29.48881804	     -5.99069567	     -4.70326770	     69.49057033	     69.49057033	     -7.69024970	    -15.03686667	     -0.51508044	     21.15446865	     -7.60211648	     -5.68583690	     26.13258061	     26.13258061	     14.78903867	    -13.52226020	      4.70441004	    -13.21725653	      7.74141305	      1.86202512	      6.27519483	    -14.53347335	    -14.14616532	     82.09106466	     45.56340908	      0.00000000	      0.00000000	     -4.89325161	    -14.54491855	     -5.58641956	     72.07861218	     46.89494115	      0.00000000	      0.00000000
     36.38178571	     -8.24738995	     -5.63557398	     -0.94825527	      1.03956013	      0.92519619	      0.45715290	     31.37857086	     -5.91018927	     -5.02594259	     69.14107807	     69.14107807	     -7.23819362	    -15.83744354	     -0.61529160	     20.04561139	     -7.61423473	     -5.99862746	     25.33327017	     25.33327017	     15.00784409	    -13.67491369	      4.91274686	    -13.39932246	      7.73900834	      2.79364461	      4.15316839	    -14.90483954	    -14.31937969	     78.58273596	     45.67094035	      0.00000000	      0.00000000	     -3.31695959	    -14.76595524	     -6.06046260	     74.55836116	     46.99087797	      0.00000000	      0.00000000
     36.39357143	     -8.22311444	     -5.70850292	     -1.32116110	      1.03923243	      0.92636133	      0.45731021	     33.06352351	     -5.73815429	     -5.49391327	     68.51036096	     68.51036096	     -6.72732323	    -16.46420381	     -0.29662041	     18.91622608	     -7.73061807	     -6.37365327	     24.53338508	     24.53338508	     15.21928407	    -13.53060702	      4.81892738	    -13.57450371	      7.72642845	      2.36148203	      4.33107101	    -14.24035924	    -14.38655389	     71.46481995	     45.88444718	      0.00000000	      0.00000000	     -3.15842344	    -15.70266585	     -6.60978340	     78.54390196	     47.15379816	      0.00000000	      0.00000000
     36.40535714	     -8.21109949	     -5.80106899	     -1.71588034	      1.03888968	      0.92746950	      0.45755794	     34.63382496	     -5.47311768	     -5.94000738	     67.57474456	     67.57474456	     -6.10278877	    -16.83494353	      0.49723218	     17.80211738	     -7.87106747	     -6.79948434	     23.72495501	     23.72495501	     15.37977367	    -13.36789826	      4.72658517	    -13.78376021	      7.75339236	      2.33344870	      4.04558846	    -14.20876093	    -13.74447716	     65.31426222	     46.03920326	      0.00000000	      0.00000000	     -2.45707266	    -16.18735230	     -7.59063622	     81.80326424	     47.33031244	      0.00000000	      0.00000000
     36.41714286	     -8.11734380	     -5.86357895	     -2.12985013	      1.03865539	      0.92865677	      0.45787120	     35.92240557	     -5.17639670	     -6.35789087	     66.19247852	     66.19247852	     -5.61185045	    -17.07596408	      0.82880732	     16.53023752	     -7.94683450	     -7.22061004	     22.79045446	     22.79045446	     15.57526839	    -13.27078924	      4.86527380	    -14.12827617	      7.82102806	      3.24249613	      2.30771801	    -14.60542671	    -13.42834236	     62.07740259	     46.12193069	      0.00000000	      0.00000000	     -0.82830885	    -16.20148497	     -8.30416453	     84.22164966	     47.44009236	      0.00000000	      0.00000000
